# Blender v3.1.2 OBJ File: 'untitled.blend'
# www.blender.org
mtllib moyai.mtl
o Cube_Cube.001
v -0.982005 1.033174 0.476167
v -0.568771 2.173501 0.392405
v 0.901170 1.299921 0.454709
v 0.366193 2.206524 0.487146
v -1.147808 -0.370318 0.604599
v 0.529402 1.134814 0.689754
v 0.668541 0.183983 0.313290
v 1.421879 -0.016035 0.299706
v 0.741429 -0.122262 0.607752
v 0.841338 -1.468655 0.566917
v 0.482858 -1.500620 0.937737
v -0.517300 -1.546376 0.919068
v -1.191910 -1.456775 0.617606
v -0.528900 1.037697 0.697518
v -0.553225 -0.351542 0.867472
v -1.406689 -1.441948 0.000000
v -1.392536 -0.240027 0.000000
v -1.059228 1.085021 0.000000
v -0.703142 2.197289 0.000000
v 0.478673 2.248160 0.000000
v 1.017097 1.334036 0.000000
v 0.968841 -1.478295 0.000000
v 1.241253 -0.612652 0.000000
v 0.742089 -0.226622 0.000000
v 1.454035 -0.016037 0.000000
v 0.506009 1.069863 0.000000
v 1.010843 0.146405 0.136407
v 1.020655 0.136867 0.000000
v -0.541007 -1.639347 0.000000
v 0.497886 -1.591340 0.000000
v 0.444664 -0.295882 0.887792
v 0.604272 0.623175 0.462012
v 0.512384 1.068415 0.046478
v 0.653508 0.399007 0.672405
v 0.119908 -0.319777 0.880262
v 0.116895 0.652987 0.803220
v -0.538179 0.661697 0.762349
v -0.501707 -0.250740 0.974876
v 0.081960 -0.218975 0.987666
v 0.078948 0.576101 0.910624
v -0.486661 0.584811 0.869753
v 0.913880 -0.972378 0.339106
v 0.843576 -0.355965 0.441730
v 1.407216 -0.101026 0.300861
v 1.439372 -0.101028 0.000000
v 0.522136 1.059296 0.402524
v 1.024258 1.384804 0.000000
v 0.956768 1.344522 0.481765
v 0.500536 -0.743334 0.946295
v 0.818582 -0.339636 0.000000
v 0.741798 -0.206183 0.309528
v 1.370829 -0.090532 0.365714
v 0.782093 -0.759113 0.635664
v 0.938734 -1.034528 0.000000
v 1.087344 -0.648607 0.374843
v -0.547257 -1.602699 0.546330
v 0.489322 -1.561711 0.515984
v -0.031672 -1.607957 0.533868
v -0.037153 -1.532911 0.919068
v -0.982345 -1.557700 0.338624
v -0.011430 -1.618893 0.000000
v 0.522462 -1.257886 0.986578
v 0.981285 -1.277676 0.000000
v 0.946256 -1.273049 0.347210
v 0.635594 -1.260361 0.911496
v 0.861213 -1.272151 0.578748
v 0.331216 -1.264709 0.990884
v -0.046909 -1.275143 0.988741
v -0.551712 -1.289253 0.989106
v -1.331239 -1.291974 0.638822
v -1.435781 -1.288390 0.366413
v -1.076844 -1.291696 0.855992
v -1.497195 -1.260716 0.000000
v -0.279024 -1.602804 0.305845
v 0.239077 -1.580789 0.290602
v 0.918421 -0.572987 0.392127
v 0.915415 -0.470609 0.000000
v 0.962284 -0.500963 0.192205
v 1.091434 -0.787108 0.000000
v 0.992728 -0.785462 0.380261
v 1.054124 -0.784457 0.226717
v -0.982005 1.033174 -0.476167
v -0.568771 2.173501 -0.392405
v 0.901170 1.299921 -0.454709
v 0.366193 2.206524 -0.487146
v -1.147808 -0.370318 -0.604599
v 0.529402 1.134814 -0.689754
v 0.668541 0.183983 -0.313290
v 1.421879 -0.016035 -0.299706
v 0.741429 -0.122262 -0.607752
v 0.841338 -1.468655 -0.566917
v 0.482858 -1.500620 -0.937737
v -0.517300 -1.546376 -0.919068
v -1.191910 -1.456775 -0.617606
v -0.528900 1.037697 -0.697518
v -0.553225 -0.351542 -0.867472
v 1.010843 0.146405 -0.136407
v 0.444664 -0.295882 -0.887792
v 0.604272 0.623175 -0.462012
v 0.512384 1.068415 -0.046478
v 0.653508 0.399007 -0.672405
v 0.119908 -0.319777 -0.880262
v 0.116895 0.652987 -0.803220
v -0.538179 0.661697 -0.762349
v -0.501707 -0.250740 -0.974876
v 0.081960 -0.218975 -0.987666
v 0.078948 0.576101 -0.910624
v -0.486661 0.584811 -0.869753
v 0.913880 -0.972378 -0.339106
v 0.843576 -0.355965 -0.441730
v 1.407216 -0.101026 -0.300861
v 0.522136 1.059296 -0.402524
v 0.956768 1.344522 -0.481765
v 0.500536 -0.743334 -0.946295
v 0.741798 -0.206183 -0.309528
v 1.370829 -0.090532 -0.365714
v 0.782093 -0.759113 -0.635664
v 1.087344 -0.648607 -0.374843
v -0.547257 -1.602699 -0.546330
v 0.489322 -1.561711 -0.515984
v -0.031672 -1.607957 -0.533868
v -0.037153 -1.532911 -0.919068
v -0.982345 -1.557700 -0.338624
v 0.522462 -1.257886 -0.986578
v 0.946256 -1.273049 -0.347210
v 0.635594 -1.260361 -0.911496
v 0.861213 -1.272151 -0.578748
v 0.331216 -1.264709 -0.990884
v -0.046909 -1.275143 -0.988741
v -0.551712 -1.289253 -0.989106
v -1.331239 -1.291974 -0.638822
v -1.435781 -1.288390 -0.366413
v -1.076844 -1.291696 -0.855992
v -0.279024 -1.602804 -0.305845
v 0.239077 -1.580789 -0.290602
v 0.918421 -0.572987 -0.392127
v 0.962284 -0.500963 -0.192205
v 0.992728 -0.785462 -0.380261
v 1.054124 -0.784457 -0.226717
vt 0.000000 0.000000
vt 0.000000 0.000000
vt 0.000000 0.000000
vt 0.000000 0.000000
vt 0.000000 0.000000
vt 0.000000 0.000000
vt 0.000000 0.000000
vt 0.000000 0.000000
vt 0.000000 0.000000
vt 0.000000 0.000000
vt 0.000000 0.000000
vt 0.000000 0.000000
vt 0.000000 0.000000
vt 0.000000 0.000000
vt 0.000000 0.000000
vt 0.000000 0.000000
vt 0.000000 0.000000
vt 0.000000 0.000000
vt 0.000000 0.000000
vt 0.000000 0.000000
vt 0.000000 0.000000
vt 0.000000 0.000000
vt 0.000000 0.000000
vt 0.000000 0.000000
vt 0.000000 0.000000
vt 0.000000 0.000000
vt 0.000000 0.000000
vt 0.000000 0.000000
vt 0.000000 0.000000
vt 0.000000 0.000000
vt 0.000000 0.000000
vt 0.000000 0.000000
vt 0.000000 0.000000
vt 0.000000 0.000000
vt 0.000000 0.000000
vt 0.000000 0.000000
vt 0.000000 0.000000
vt 0.000000 0.000000
vt 0.000000 0.000000
vt 0.000000 0.000000
vt 0.000000 0.000000
vt 0.000000 0.000000
vt 0.000000 0.000000
vt 0.000000 0.000000
vt 0.000000 0.000000
vt 0.000000 0.000000
vt 0.000000 0.000000
vt 0.000000 0.000000
vt 0.000000 0.000000
vt 0.000000 0.000000
vt 0.000000 0.000000
vt 0.000000 0.000000
vt 0.000000 0.000000
vt 0.000000 0.000000
vt 0.000000 0.000000
vt 0.000000 0.000000
vt 0.000000 0.000000
vt 0.000000 0.000000
vt 0.000000 0.000000
vt 0.000000 0.000000
vt 0.000000 0.000000
vt 0.000000 0.000000
vt 0.000000 0.000000
vt 0.000000 0.000000
vt 0.000000 0.000000
vt 0.000000 0.000000
vt 0.000000 0.000000
vt 0.000000 0.000000
vt 0.000000 0.000000
vt 0.000000 0.000000
vt 0.000000 0.000000
vt 0.000000 0.000000
vt 0.000000 0.000000
vt 0.000000 0.000000
vt 0.000000 0.000000
vt 0.000000 0.000000
vt 0.000000 0.000000
vt 0.000000 0.000000
vt 0.000000 0.000000
vt 0.000000 0.000000
vt 0.000000 0.000000
vt 0.000000 0.000000
vt 0.000000 0.000000
vt 0.000000 0.000000
vt 0.000000 0.000000
vt 0.000000 0.000000
vt 0.000000 0.000000
vt 0.000000 0.000000
vt 0.000000 0.000000
vt 0.000000 0.000000
vt 0.000000 0.000000
vt 0.000000 0.000000
vt 0.000000 0.000000
vt 0.000000 0.000000
vt 0.000000 0.000000
vt 0.000000 0.000000
vt 0.000000 0.000000
vt 0.000000 0.000000
vt 0.000000 0.000000
vt 0.000000 0.000000
vt 0.000000 0.000000
vt 0.000000 0.000000
vt 0.000000 0.000000
vt 0.000000 0.000000
vt 0.000000 0.000000
vt 0.000000 0.000000
vt 0.000000 0.000000
vt 0.000000 0.000000
vt 0.000000 0.000000
vt 0.000000 0.000000
vt 0.000000 0.000000
vt 0.000000 0.000000
vt 0.000000 0.000000
vt 0.000000 0.000000
vt 0.000000 0.000000
vt 0.000000 0.000000
vt 0.000000 0.000000
vt 0.000000 0.000000
vt 0.000000 0.000000
vt 0.000000 0.000000
vt 0.000000 0.000000
vt 0.000000 0.000000
vt 0.000000 0.000000
vt 0.000000 0.000000
vt 0.000000 0.000000
vt 0.000000 0.000000
vt 0.000000 0.000000
vt 0.000000 0.000000
vt 0.000000 0.000000
vt 0.000000 0.000000
vt 0.000000 0.000000
vt 0.000000 0.000000
vt 0.000000 0.000000
vt 0.000000 0.000000
vt 0.000000 0.000000
vt 0.000000 0.000000
vt 0.000000 0.000000
vt 0.000000 0.000000
vt 0.000000 0.000000
vn 0.8147 -0.5685 0.1144
vn 0.8219 0.5194 0.2341
vn 0.5243 -0.8110 0.2596
vn -0.0429 0.9962 0.0752
vn -0.0428 0.9963 0.0750
vn -0.8820 0.3433 0.3228
vn -0.9360 0.2997 0.1844
vn -0.9762 0.1311 0.1726
vn -0.8860 0.2229 0.4067
vn -0.7186 -0.6420 0.2673
vn -0.8887 -0.4438 0.1154
vn -0.5449 -0.5429 0.6390
vn -0.2343 -0.2846 0.9296
vn -0.4043 0.1306 0.9052
vn -0.4683 0.1154 0.8760
vn -0.4299 0.2201 0.8756
vn -0.0167 0.2589 0.9658
vn -0.1053 0.1692 0.9799
vn -0.0591 0.1710 0.9835
vn -0.0227 0.0789 0.9966
vn -0.0274 0.1299 0.9912
vn 0.0080 -0.2606 0.9654
vn 0.6958 0.1343 0.7056
vn 0.6236 0.0543 0.7799
vn 0.9927 0.1083 0.0529
vn 0.7252 -0.1590 0.6699
vn 0.8279 0.5603 -0.0261
vn 0.9803 -0.1677 0.1048
vn 0.9800 -0.1691 0.1051
vn 0.1991 0.7034 0.6823
vn 0.2506 0.9241 0.2886
vn 0.3542 0.9344 0.0380
vn 0.3324 0.9422 -0.0420
vn 0.8752 0.4828 0.0292
vn 0.4617 0.3299 0.8234
vn 0.9837 0.1692 -0.0602
vn 0.8790 0.4649 -0.1061
vn 0.4271 -0.9032 0.0411
vn 0.5248 -0.8489 0.0627
vn 0.2336 -0.9618 0.1429
vn 0.2329 -0.9701 0.0689
vn 0.0275 -0.9811 0.1915
vn 0.0385 -0.9956 0.0860
vn -0.1951 -0.9600 0.2007
vn -0.2220 -0.9735 -0.0546
vn 0.9860 0.1601 -0.0465
vn 0.9845 0.1673 -0.0522
vn 0.9830 0.1821 -0.0223
vn 0.0261 -0.8069 -0.5901
vn 0.0289 -0.0788 -0.9965
vn -0.0606 0.1039 0.9927
vn 0.0290 -0.8176 -0.5751
vn -0.9353 -0.0308 -0.3525
vn -0.9517 -0.0332 -0.3051
vn 0.8820 -0.0616 -0.4671
vn 0.9221 -0.0646 -0.3816
vn -0.0212 0.7253 -0.6881
vn -0.0251 0.7349 -0.6777
vn 0.0696 -0.1258 -0.9896
vn 0.0270 -0.0963 -0.9950
vn 0.1769 -0.9821 0.0650
vn 0.8123 -0.5091 0.2847
vn 0.8703 0.4745 -0.1324
vn 0.8407 0.5404 -0.0349
vn 0.9820 0.1753 -0.0709
vn 0.8147 0.5572 0.1607
vn 0.3354 0.2241 0.9150
vn -0.0302 0.0949 0.9950
vn 0.7695 0.6374 -0.0403
vn 0.1563 -0.9876 0.0167
vn 0.1510 -0.9515 0.2679
vn 0.1545 -0.9580 0.2417
vn 0.8536 -0.1404 0.5017
vn 0.2837 0.5196 0.8059
vn 0.8201 -0.1167 0.5602
vn 0.9406 -0.2619 0.2160
vn 0.6788 -0.4191 0.6030
vn 0.7336 0.1774 0.6560
vn 0.4892 0.8111 0.3207
vn 0.3549 0.6363 0.6850
vn 0.7874 -0.5320 0.3114
vn 0.7441 0.1941 0.6393
vn 0.0241 -0.9980 0.0577
vn -0.0065 -0.9887 0.1499
vn 0.2470 -0.9672 0.0596
vn -0.2008 -0.9661 0.1621
vn -0.0105 -0.9999 -0.0112
vn 0.0924 -0.9852 0.1441
vn 0.0540 -0.9800 0.1917
vn -0.0091 0.1253 0.9921
vn -0.3298 -0.9395 0.0921
vn -0.1332 -0.9890 0.0648
vn 0.1220 -0.9922 0.0249
vn 0.9323 -0.1149 0.3429
vn 0.9804 0.1716 0.0966
vn 0.5317 -0.2496 0.8093
vn 0.8270 0.0656 0.5584
vn -0.9800 0.1005 0.1718
vn -0.0029 0.1286 0.9917
vn -0.6415 0.1556 0.7512
vn -0.2444 0.1243 0.9617
vn -0.8983 0.1775 0.4019
vn 0.0292 -0.2018 0.9790
vn -0.0383 -0.9991 0.0190
vn 0.0601 -0.9959 0.0675
vn 0.0538 -0.9950 0.0841
vn 0.0880 -0.9960 -0.0133
vn 0.9348 0.1066 0.3388
vn 0.9332 0.1097 0.3423
vn 0.3992 0.9157 0.0473
vn 0.8097 0.1495 0.5675
vn 0.9225 0.2512 0.2929
vn 0.6701 -0.4396 0.5980
vn 0.8402 -0.4278 0.3332
vn 0.7521 -0.6459 0.1313
vn 0.8323 -0.5355 0.1432
vn 0.8405 -0.5187 0.1567
vn 0.9930 -0.0616 0.1010
vn 0.6846 -0.3664 0.6302
vn 0.0017 -0.2609 0.9654
vn -0.0205 -0.2322 0.9724
vn 0.0073 -0.2619 0.9651
vn -0.3761 -0.6669 0.6433
vn -0.7010 -0.6758 0.2276
vn 0.1199 0.1292 0.9843
vn -0.0150 0.2414 0.9703
vn -0.9148 0.1952 0.3536
vn -0.4007 0.2123 0.8913
vn 0.8147 -0.5685 -0.1144
vn 0.8219 0.5194 -0.2341
vn 0.5243 -0.8110 -0.2596
vn -0.0429 0.9962 -0.0752
vn -0.0428 0.9963 -0.0750
vn -0.8820 0.3433 -0.3228
vn -0.9360 0.2997 -0.1844
vn -0.9762 0.1311 -0.1726
vn -0.8860 0.2229 -0.4067
vn -0.7186 -0.6420 -0.2673
vn -0.8887 -0.4438 -0.1154
vn -0.5449 -0.5429 -0.6390
vn -0.2343 -0.2846 -0.9296
vn -0.4043 0.1306 -0.9052
vn -0.4683 0.1154 -0.8760
vn -0.4299 0.2201 -0.8756
vn -0.0167 0.2589 -0.9658
vn -0.1053 0.1692 -0.9799
vn -0.0591 0.1710 -0.9835
vn -0.0227 0.0789 -0.9966
vn -0.0274 0.1299 -0.9912
vn 0.0080 -0.2606 -0.9654
vn 0.6958 0.1343 -0.7056
vn 0.6236 0.0543 -0.7799
vn 0.9927 0.1083 -0.0529
vn 0.7252 -0.1590 -0.6699
vn 0.8279 0.5603 0.0261
vn 0.9803 -0.1677 -0.1048
vn 0.9800 -0.1691 -0.1051
vn 0.1991 0.7034 -0.6823
vn 0.2506 0.9241 -0.2886
vn 0.3542 0.9344 -0.0380
vn 0.3324 0.9422 0.0420
vn 0.8752 0.4828 -0.0292
vn 0.4617 0.3299 -0.8234
vn 0.9837 0.1692 0.0602
vn 0.8790 0.4649 0.1061
vn 0.4271 -0.9032 -0.0411
vn 0.5248 -0.8489 -0.0627
vn 0.2336 -0.9618 -0.1429
vn 0.2329 -0.9701 -0.0689
vn 0.0275 -0.9811 -0.1915
vn 0.0385 -0.9956 -0.0860
vn -0.1951 -0.9600 -0.2007
vn -0.2220 -0.9735 0.0546
vn 0.9860 0.1601 0.0465
vn 0.9845 0.1673 0.0522
vn 0.9830 0.1821 0.0223
vn 0.0261 -0.8069 0.5901
vn 0.0289 -0.0788 0.9965
vn -0.0606 0.1039 -0.9927
vn 0.0290 -0.8176 0.5751
vn -0.9353 -0.0308 0.3525
vn -0.9517 -0.0332 0.3051
vn 0.8820 -0.0616 0.4671
vn 0.9221 -0.0646 0.3816
vn -0.0212 0.7253 0.6881
vn -0.0251 0.7349 0.6777
vn 0.0696 -0.1258 0.9896
vn 0.0270 -0.0963 0.9950
vn 0.1769 -0.9821 -0.0650
vn 0.8123 -0.5091 -0.2847
vn 0.8703 0.4745 0.1324
vn 0.8407 0.5404 0.0349
vn 0.9820 0.1753 0.0709
vn 0.8147 0.5572 -0.1607
vn 0.3354 0.2241 -0.9150
vn -0.0302 0.0949 -0.9950
vn 0.7695 0.6374 0.0403
vn 0.1563 -0.9876 -0.0167
vn 0.1510 -0.9515 -0.2679
vn 0.1545 -0.9580 -0.2417
vn 0.8536 -0.1404 -0.5017
vn 0.2837 0.5196 -0.8059
vn 0.8201 -0.1167 -0.5602
vn 0.9406 -0.2619 -0.2160
vn 0.6788 -0.4191 -0.6030
vn 0.7336 0.1774 -0.6560
vn 0.4892 0.8111 -0.3207
vn 0.3549 0.6363 -0.6850
vn 0.7874 -0.5320 -0.3114
vn 0.7441 0.1941 -0.6393
vn 0.0241 -0.9980 -0.0577
vn -0.0065 -0.9887 -0.1499
vn 0.2470 -0.9672 -0.0596
vn -0.2008 -0.9661 -0.1621
vn -0.0105 -0.9999 0.0112
vn 0.0924 -0.9852 -0.1441
vn 0.0540 -0.9800 -0.1917
vn -0.0091 0.1253 -0.9921
vn -0.3298 -0.9395 -0.0921
vn -0.1332 -0.9890 -0.0648
vn 0.1220 -0.9922 -0.0249
vn 0.9323 -0.1149 -0.3429
vn 0.9804 0.1716 -0.0966
vn 0.5317 -0.2496 -0.8093
vn 0.8270 0.0656 -0.5584
vn -0.9800 0.1005 -0.1718
vn -0.0029 0.1286 -0.9917
vn -0.6415 0.1556 -0.7512
vn -0.2444 0.1243 -0.9617
vn -0.8983 0.1775 -0.4019
vn 0.0292 -0.2018 -0.9790
vn -0.0383 -0.9991 -0.0190
vn 0.0601 -0.9959 -0.0675
vn 0.0538 -0.9950 -0.0841
vn 0.0880 -0.9960 0.0133
vn 0.9348 0.1066 -0.3388
vn 0.9332 0.1097 -0.3423
vn 0.3992 0.9157 -0.0473
vn 0.8097 0.1495 -0.5675
vn 0.9225 0.2512 -0.2929
vn 0.6701 -0.4396 -0.5980
vn 0.8402 -0.4278 -0.3332
vn 0.7521 -0.6459 -0.1313
vn 0.8323 -0.5355 -0.1432
vn 0.8405 -0.5187 -0.1567
vn 0.9930 -0.0616 -0.1010
vn 0.6846 -0.3664 -0.6302
vn 0.0017 -0.2609 -0.9654
vn -0.0205 -0.2322 -0.9724
vn 0.0073 -0.2619 -0.9651
vn -0.3761 -0.6669 -0.6433
vn -0.7010 -0.6758 -0.2276
vn 0.1199 0.1292 -0.9843
vn -0.0150 0.2414 -0.9703
vn -0.9148 0.1952 -0.3536
vn -0.4007 0.2123 -0.8913
usemtl None
s off
f 3/1/1 21/2/1 47/3/1 48/4/1
f 20/5/2 4/6/2 47/3/2
f 3/1/3 48/4/3 6/7/3
f 20/5/4 19/8/4 4/6/4
f 2/9/5 4/6/5 19/8/5
f 2/9/6 19/8/6 1/10/6
f 18/11/7 1/10/7 19/8/7
f 5/12/8 1/10/8 18/11/8
f 17/13/9 5/12/9 18/11/9
f 13/14/10 70/15/10 71/16/10
f 73/17/11 16/18/11 71/16/11
f 13/14/12 72/19/12 70/15/12
f 69/20/13 72/19/13 12/21/13
f 5/12/14 15/22/14 1/10/14
f 14/23/15 1/10/15 15/22/15 37/24/15
f 2/9/16 1/10/16 14/23/16
f 14/23/17 6/7/17 2/9/17
f 2/9/18 6/7/18 4/6/18
f 37/24/19 36/25/19 14/23/19
f 15/22/20 35/26/20 36/25/20
f 31/27/21 35/26/21 15/22/21 49/28/21
f 59/29/22 68/30/22 69/20/22
f 49/28/23 62/31/23 65/32/23 53/33/23
f 9/34/24 34/35/24 6/7/24 31/27/24
f 54/36/25 42/37/25 64/38/25
f 31/27/26 43/39/26 9/34/26
f 24/40/27 43/39/27 50/41/27
f 44/42/28 45/43/28 8/44/28
f 25/45/29 8/44/29 45/43/29
f 8/44/30 7/46/30 9/34/30
f 8/44/31 27/47/31 7/46/31
f 25/45/32 27/47/32 8/44/32
f 27/47/33 25/45/33 28/48/33
f 27/47/34 28/48/34 26/49/34
f 27/47/35 33/50/35 7/46/35
f 7/46/36 32/51/36 34/35/36 9/34/36
f 33/50/37 27/47/37 26/49/37
f 6/7/38 21/2/38 3/1/38
f 26/49/39 21/2/39 6/7/39 46/52/39 33/50/39
f 11/53/40 57/54/40 10/55/40
f 22/56/41 10/55/41 30/57/41
f 12/21/42 58/58/42 59/29/42
f 29/59/43 61/60/43 74/61/43
f 13/14/44 60/62/44 56/63/44
f 16/18/45 29/59/45 60/62/45
f 7/46/46 33/50/46 32/51/46
f 34/35/47 32/51/47 6/7/47
f 32/51/48 33/50/48 46/52/48
f 36/25/49 41/64/49 37/24/49
f 35/26/50 36/25/50 31/27/50
f 36/25/51 37/24/51 15/22/51
f 40/65/52 41/64/52 36/25/52
f 36/25/53 35/26/53 40/65/53
f 39/66/54 40/65/54 35/26/54
f 15/22/55 37/24/55 41/64/55
f 38/67/56 15/22/56 41/64/56
f 35/26/57 15/22/57 39/66/57
f 38/67/58 39/66/58 15/22/58
f 41/64/59 40/65/59 38/67/59
f 39/66/60 38/67/60 40/65/60
f 51/68/61 24/40/61 45/43/61
f 55/69/62 81/70/62 23/71/62
f 51/68/63 9/34/63 43/39/63
f 51/68/64 43/39/64 24/40/64
f 46/52/65 6/7/65 32/51/65
f 48/4/66 47/3/66 4/6/66
f 6/7/67 48/4/67 4/6/67
f 49/28/68 15/22/68 67/72/68 62/31/68
f 50/41/69 43/39/69 78/73/69 77/74/69
f 45/43/70 44/42/70 51/68/70
f 51/68/71 52/75/71 9/34/71
f 51/68/72 44/42/72 52/75/72
f 44/42/73 8/44/73 52/75/73
f 9/34/74 52/75/74 8/44/74
f 66/76/75 65/32/75 10/55/75
f 22/56/76 64/38/76 10/55/76
f 42/37/77 80/77/77 53/33/77
f 53/33/78 31/27/78 49/28/78
f 23/71/79 78/73/79 76/78/79 55/69/79
f 53/33/80 55/69/80 76/78/80
f 81/70/81 55/69/81 80/77/81
f 43/39/82 31/27/82 53/33/82
f 57/54/83 75/79/83 30/57/83
f 56/63/84 58/58/84 12/21/84
f 10/55/85 57/54/85 30/57/85
f 56/63/86 12/21/86 13/14/86
f 58/58/87 56/63/87 74/61/87
f 11/53/88 58/58/88 57/54/88
f 59/29/89 58/58/89 11/53/89
f 15/22/90 68/30/90 67/72/90
f 60/62/91 13/14/91 16/18/91
f 56/63/92 60/62/92 29/59/92
f 58/58/93 61/60/93 75/79/93
f 64/38/94 66/76/94 10/55/94
f 64/38/95 63/80/95 54/36/95
f 65/32/96 62/31/96 11/53/96
f 65/32/97 66/76/97 53/33/97
f 73/17/98 71/16/98 17/13/98
f 69/20/99 68/30/99 15/22/99
f 70/15/100 72/19/100 5/12/100
f 72/19/101 69/20/101 15/22/101
f 17/13/102 71/16/102 5/12/102
f 62/31/103 67/72/103 11/53/103
f 74/61/104 61/60/104 58/58/104
f 74/61/105 56/63/105 29/59/105
f 75/79/106 61/60/106 30/57/106
f 75/79/107 57/54/107 58/58/107
f 53/33/108 66/76/108 42/37/108
f 42/37/109 66/76/109 64/38/109
f 77/74/110 78/73/110 23/71/110
f 76/78/111 43/39/111 53/33/111
f 76/78/112 78/73/112 43/39/112
f 53/33/113 80/77/113 55/69/113
f 81/70/114 80/77/114 42/37/114
f 81/70/115 79/81/115 23/71/115
f 42/37/116 79/81/116 81/70/116
f 54/36/117 79/81/117 42/37/117
f 64/38/118 22/56/118 63/80/118
f 11/53/119 10/55/119 65/32/119
f 68/30/120 59/29/120 67/72/120
f 59/29/121 11/53/121 67/72/121
f 12/21/122 59/29/122 69/20/122
f 13/14/123 12/21/123 72/19/123
f 16/18/124 13/14/124 71/16/124
f 31/27/125 6/7/125 36/25/125
f 14/23/126 36/25/126 6/7/126
f 70/15/127 5/12/127 71/16/127
f 15/22/128 5/12/128 72/19/128
f 84/82/129 113/83/129 47/3/129 21/2/129
f 20/5/130 47/3/130 85/84/130
f 84/82/131 87/85/131 113/83/131
f 20/5/132 85/84/132 19/8/132
f 83/86/133 19/8/133 85/84/133
f 83/86/134 82/87/134 19/8/134
f 18/11/135 19/8/135 82/87/135
f 86/88/136 18/11/136 82/87/136
f 17/13/137 18/11/137 86/88/137
f 94/89/138 132/90/138 131/91/138
f 73/17/139 132/90/139 16/18/139
f 94/89/140 131/91/140 133/92/140
f 130/93/141 93/94/141 133/92/141
f 86/88/142 82/87/142 96/95/142
f 95/96/143 104/97/143 96/95/143 82/87/143
f 83/86/144 95/96/144 82/87/144
f 95/96/145 83/86/145 87/85/145
f 83/86/146 85/84/146 87/85/146
f 104/97/147 95/96/147 103/98/147
f 96/95/148 103/98/148 102/99/148
f 98/100/149 114/101/149 96/95/149 102/99/149
f 122/102/150 130/93/150 129/103/150
f 114/101/151 117/104/151 126/105/151 124/106/151
f 90/107/152 98/100/152 87/85/152 101/108/152
f 54/36/153 125/109/153 109/110/153
f 98/100/154 90/107/154 110/111/154
f 24/40/155 50/41/155 110/111/155
f 111/112/156 89/113/156 45/43/156
f 25/45/157 45/43/157 89/113/157
f 89/113/158 90/107/158 88/114/158
f 89/113/159 88/114/159 97/115/159
f 25/45/160 89/113/160 97/115/160
f 97/115/161 28/48/161 25/45/161
f 97/115/162 26/49/162 28/48/162
f 97/115/163 88/114/163 100/116/163
f 88/114/164 90/107/164 101/108/164 99/117/164
f 100/116/165 26/49/165 97/115/165
f 87/85/166 84/82/166 21/2/166
f 26/49/167 100/116/167 112/118/167 87/85/167 21/2/167
f 92/119/168 91/120/168 120/121/168
f 22/56/169 30/57/169 91/120/169
f 93/94/170 122/102/170 121/122/170
f 29/59/171 134/123/171 61/60/171
f 94/89/172 119/124/172 123/125/172
f 16/18/173 123/125/173 29/59/173
f 88/114/174 99/117/174 100/116/174
f 101/108/175 87/85/175 99/117/175
f 99/117/176 112/118/176 100/116/176
f 103/98/177 104/97/177 108/126/177
f 102/99/178 98/100/178 103/98/178
f 103/98/179 96/95/179 104/97/179
f 107/127/180 103/98/180 108/126/180
f 103/98/181 107/127/181 102/99/181
f 106/128/182 102/99/182 107/127/182
f 96/95/183 108/126/183 104/97/183
f 105/129/184 108/126/184 96/95/184
f 102/99/185 106/128/185 96/95/185
f 105/129/186 96/95/186 106/128/186
f 108/126/187 105/129/187 107/127/187
f 106/128/188 107/127/188 105/129/188
f 115/130/189 45/43/189 24/40/189
f 118/131/190 23/71/190 139/132/190
f 115/130/191 110/111/191 90/107/191
f 115/130/192 24/40/192 110/111/192
f 112/118/193 99/117/193 87/85/193
f 113/83/194 85/84/194 47/3/194
f 87/85/195 85/84/195 113/83/195
f 114/101/196 124/106/196 128/133/196 96/95/196
f 50/41/197 77/74/197 137/134/197 110/111/197
f 45/43/198 115/130/198 111/112/198
f 115/130/199 90/107/199 116/135/199
f 115/130/200 116/135/200 111/112/200
f 111/112/201 116/135/201 89/113/201
f 90/107/202 89/113/202 116/135/202
f 127/136/203 91/120/203 126/105/203
f 22/56/204 91/120/204 125/109/204
f 109/110/205 117/104/205 138/137/205
f 117/104/206 114/101/206 98/100/206
f 23/71/207 118/131/207 136/138/207 137/134/207
f 117/104/208 136/138/208 118/131/208
f 139/132/209 138/137/209 118/131/209
f 110/111/210 117/104/210 98/100/210
f 120/121/211 30/57/211 135/139/211
f 119/124/212 93/94/212 121/122/212
f 91/120/213 30/57/213 120/121/213
f 119/124/214 94/89/214 93/94/214
f 121/122/215 134/123/215 119/124/215
f 92/119/216 120/121/216 121/122/216
f 122/102/217 92/119/217 121/122/217
f 96/95/218 128/133/218 129/103/218
f 123/125/219 16/18/219 94/89/219
f 119/124/220 29/59/220 123/125/220
f 121/122/221 135/139/221 61/60/221
f 125/109/222 91/120/222 127/136/222
f 125/109/223 54/36/223 63/80/223
f 126/105/224 92/119/224 124/106/224
f 126/105/225 117/104/225 127/136/225
f 73/17/226 17/13/226 132/90/226
f 130/93/227 96/95/227 129/103/227
f 131/91/228 86/88/228 133/92/228
f 133/92/229 96/95/229 130/93/229
f 17/13/230 86/88/230 132/90/230
f 124/106/231 92/119/231 128/133/231
f 134/123/232 121/122/232 61/60/232
f 134/123/233 29/59/233 119/124/233
f 135/139/234 30/57/234 61/60/234
f 135/139/235 121/122/235 120/121/235
f 117/104/236 109/110/236 127/136/236
f 109/110/237 125/109/237 127/136/237
f 77/74/238 23/71/238 137/134/238
f 136/138/239 117/104/239 110/111/239
f 136/138/240 110/111/240 137/134/240
f 117/104/241 118/131/241 138/137/241
f 139/132/242 109/110/242 138/137/242
f 139/132/243 23/71/243 79/81/243
f 109/110/244 139/132/244 79/81/244
f 54/36/245 109/110/245 79/81/245
f 125/109/246 63/80/246 22/56/246
f 92/119/247 126/105/247 91/120/247
f 129/103/248 128/133/248 122/102/248
f 122/102/249 128/133/249 92/119/249
f 93/94/250 130/93/250 122/102/250
f 94/89/251 133/92/251 93/94/251
f 16/18/252 132/90/252 94/89/252
f 98/100/253 103/98/253 87/85/253
f 95/96/254 87/85/254 103/98/254
f 131/91/255 132/90/255 86/88/255
f 96/95/256 133/92/256 86/88/256
